<?xml version="1.0" encoding="UTF-8" standalone="no"?>
<svg
   width="470.35947pt"
   height="403.20709pt"
   version="1.1"
   viewBox="0 0 470.35947 403.20709"
   id="svg317"
   sodipodi:docname="alert.svg"
   inkscape:version="1.1.2 (b8e25be833, 2022-02-05)"
   xmlns:inkscape="http://www.inkscape.org/namespaces/inkscape"
   xmlns:sodipodi="http://sodipodi.sourceforge.net/DTD/sodipodi-0.dtd"
   xmlns="http://www.w3.org/2000/svg"
   xmlns:svg="http://www.w3.org/2000/svg">
  <sodipodi:namedview
     id="namedview319"
     pagecolor="#ffffff"
     bordercolor="#666666"
     borderopacity="1.0"
     inkscape:pageshadow="2"
     inkscape:pageopacity="0.0"
     inkscape:pagecheckerboard="0"
     inkscape:document-units="pt"
     showgrid="false"
     inkscape:zoom="0.78857143"
     inkscape:cx="312.59058"
     inkscape:cy="432.42754"
     inkscape:window-width="1920"
     inkscape:window-height="974"
     inkscape:window-x="-11"
     inkscape:window-y="-11"
     inkscape:window-maximized="1"
     inkscape:current-layer="g315" />
  <defs
     id="defs237" />
  <g
     id="g315"
     transform="translate(-114.82474,-78.392)">
    <path
       d="m 350,78.402 c -10.957,0 -21.387,5.7344 -26.949,15.051 l -204.05,342.47 c -5.5625,9.3438 -5.5742,21.117 0,30.449 5.5,9.2031 15.621,15.254 26.602,15.227 h 408.8 c 10.98,0 21.102,-6.0234 26.602,-15.227 5.5781,-9.3359 5.5664,-21.105 0,-30.449 L 376.955,93.443 C 371.3925,84.1266 360.963,78.392 350.006,78.392 Z m 0,11.199 c 6.8633,0 13.961,3.9922 17.324,9.625 l 204.05,342.48 c 3.3672,5.6484 3.3711,13.43 0,19.074 -3.4492,5.7734 -10.098,9.6445 -16.977,9.625 h -408.8 c -6.8789,0 -13.523,-3.8516 -16.977,-9.625 -3.3711,-5.6445 -3.3633,-13.426 0,-19.074 L 332.67,99.226 c 3.3633,-5.6328 10.461,-9.625 17.324,-9.625 z m 0,106.4 c -12.371,0 -22.398,10.027 -22.398,22.398 l 5.6016,117.6 c 0,9.2773 7.5234,16.801 16.801,16.801 9.2776,0 16.801,-7.5234 16.801,-16.801 l 5.6016,-117.6 c 0,-12.371 -10.027,-22.398 -22.398,-22.398 z m 0,179.2 c -15.465,0 -28,12.535 -28,28 0,15.465 12.535,28 28,28 15.465,0 28,-12.535 28,-28 0,-15.465 -12.535,-28 -28,-28 z"
       id="path239" />
  </g>
</svg>
