<?xml version="1.0" encoding="UTF-8" standalone="no"?>
<svg
   width="471.29501pt"
   height="470.8302pt"
   version="1.1"
   viewBox="0 0 471.29501 470.8302"
   id="svg13356"
   sodipodi:docname="share.svg"
   inkscape:version="1.1.2 (b8e25be833, 2022-02-05)"
   xmlns:inkscape="http://www.inkscape.org/namespaces/inkscape"
   xmlns:sodipodi="http://sodipodi.sourceforge.net/DTD/sodipodi-0.dtd"
   xmlns="http://www.w3.org/2000/svg"
   xmlns:svg="http://www.w3.org/2000/svg">
  <defs
     id="defs13360" />
  <sodipodi:namedview
     id="namedview13358"
     pagecolor="#ffffff"
     bordercolor="#666666"
     borderopacity="1.0"
     inkscape:pageshadow="2"
     inkscape:pageopacity="0.0"
     inkscape:pagecheckerboard="0"
     inkscape:document-units="pt"
     showgrid="false"
     inkscape:zoom="0.825"
     inkscape:cx="315.75758"
     inkscape:cy="310.30303"
     inkscape:window-width="1920"
     inkscape:window-height="974"
     inkscape:window-x="-11"
     inkscape:window-y="-11"
     inkscape:window-maximized="1"
     inkscape:current-layer="svg13356" />
  <path
     d="m 404.094,336.42981 c -13.102,0.0156 -25.914,3.8633 -36.859,11.066 -10.945,7.2031 -19.543,17.449 -24.742,29.477 l -216.38,-107.74 c 6.1016,-10.148 9.3281,-21.762 9.3281,-33.602 0,-11.84 -3.2266,-23.453 -9.3281,-33.602 L 342.493,94.058805 v 0.004 c 8.9531,20.527005 27.543,35.246005 49.578,39.254005 22.035,4.0078 44.617,-3.2266 60.223,-19.289 15.606,-16.062405 22.184,-38.844005 17.539,-60.754009 -4.6406,-21.91 -19.891,-40.066 -40.672,-48.4219999 -20.777,-8.3555 -44.352,-5.80859997 -62.871,6.7890999 -18.516,12.598 -29.539,33.594 -29.395,55.988004 -0.0977,1.418 -0.0977,2.8398 0,4.2578 L 110.875,183.88671 c -13.086,-11.191 -29.969,-16.934 -47.164,-16.039 -17.195,0.89453 -33.391,8.3555 -45.246,20.84 C 6.61,201.17571 0,217.73871 0,234.95771 c 0,17.219 6.6094,33.781 18.465,46.266 11.855,12.488 28.051,19.949 45.246,20.844 17.195,0.89453 34.078,-4.8477 47.164,-16.039 l 226.02,112 c -0.17188,1.8633 -0.17188,3.7383 0,5.6016 0,17.824 7.0781,34.914 19.684,47.516 12.602,12.605 29.691,19.684 47.516,19.684 17.825,0 34.914,-7.0781 47.516,-19.684 12.605,-12.602 19.684,-29.691 19.684,-47.516 0,-17.825 -7.0781,-34.914 -19.684,-47.516 -12.602,-12.605 -29.691,-19.684 -47.516,-19.684 z m 0,-313.600005 c 11.883,0 23.277,4.7227 31.68,13.121 8.3984,8.4023 13.121,19.797 13.121,31.68 0,11.883 -4.7227,23.277 -13.121,31.68 -8.4023,8.398405 -19.797,13.121005 -31.68,13.121005 -11.883,0 -23.277,-4.7227 -31.68,-13.121005 -8.3984,-8.4023 -13.121,-19.797 -13.121,-31.68 0,-11.883 4.7227,-23.277 13.121,-31.68 8.4023,-8.3984 19.797,-13.121 31.68,-13.121 z M 23.294,235.62981 c 0,-11.883 4.7227,-23.277 13.121,-31.68 8.4023,-8.3984 19.797,-13.121 31.68,-13.121 11.883,0 23.277,4.7227 31.68,13.121 8.3984,8.4023 13.121,19.797 13.121,31.68 0,11.883 -4.7227,23.277 -13.121,31.68 -8.4023,8.3984 -19.797,13.121 -31.68,13.121 -11.883,0 -23.277,-4.7227 -31.68,-13.121 -8.3984,-8.4023 -13.121,-19.797 -13.121,-31.68 z m 380.8,212.8 c -11.883,0 -23.277,-4.7227 -31.68,-13.121 -8.3984,-8.4023 -13.121,-19.797 -13.121,-31.68 0,-11.883 4.7227,-23.277 13.121,-31.68 8.4023,-8.3984 19.797,-13.121 31.68,-13.121 11.883,0 23.277,4.7227 31.68,13.121 8.3984,8.4023 13.121,19.797 13.121,31.68 0,11.883 -4.7227,23.277 -13.121,31.68 -8.4023,8.3984 -19.797,13.121 -31.68,13.121 z"
     id="path13354"
     style="fill:#ffffff" />
</svg>
