<?xml version="1.0" encoding="UTF-8" standalone="no"?>
<svg
   width="441.62842pt"
   height="491.29202pt"
   version="1.1"
   viewBox="0 0 441.62842 491.29202"
   id="svg13664"
   sodipodi:docname="timer.svg"
   inkscape:version="1.1.2 (b8e25be833, 2022-02-05)"
   xmlns:inkscape="http://www.inkscape.org/namespaces/inkscape"
   xmlns:sodipodi="http://sodipodi.sourceforge.net/DTD/sodipodi-0.dtd"
   xmlns="http://www.w3.org/2000/svg"
   xmlns:svg="http://www.w3.org/2000/svg">
  <sodipodi:namedview
     id="namedview13666"
     pagecolor="#ffffff"
     bordercolor="#666666"
     borderopacity="1.0"
     inkscape:pageshadow="2"
     inkscape:pageopacity="0.0"
     inkscape:pagecheckerboard="0"
     inkscape:document-units="pt"
     showgrid="false"
     inkscape:zoom="0.825"
     inkscape:cx="295.15152"
     inkscape:cy="420.60606"
     inkscape:window-width="1920"
     inkscape:window-height="974"
     inkscape:window-x="-11"
     inkscape:window-y="-11"
     inkscape:window-maximized="1"
     inkscape:current-layer="g13662" />
  <defs
     id="defs13580">
    <symbol
       id="u"
       overflow="visible">
      <path
         d="m 18.766,-1.125 c -0.96875,0.5 -1.9805,0.875 -3.0312,1.125 -1.043,0.25781 -2.1367,0.39062 -3.2812,0.39062 -3.3984,0 -6.0898,-0.94531 -8.0781,-2.8438 -1.9922,-1.9062 -2.9844,-4.4844 -2.9844,-7.7344 0,-3.2578 0.99219,-5.8359 2.9844,-7.7344 1.9883,-1.9062 4.6797,-2.8594 8.0781,-2.8594 1.1445,0 2.2383,0.13281 3.2812,0.39062 1.0508,0.25 2.0625,0.625 3.0312,1.125 v 4.2188 c -0.98047,-0.65625 -1.9453,-1.1406 -2.8906,-1.4531 -0.94922,-0.3125 -1.9492,-0.46875 -3,-0.46875 -1.875,0 -3.3516,0.60547 -4.4219,1.8125 -1.0742,1.1992 -1.6094,2.8555 -1.6094,4.9688 0,2.1055 0.53516,3.7617 1.6094,4.9688 1.0703,1.1992 2.5469,1.7969 4.4219,1.7969 1.0508,0 2.0508,-0.14844 3,-0.45312 0.94531,-0.3125 1.9102,-0.80078 2.8906,-1.4688 z"
         id="path13517" />
    </symbol>
    <symbol
       id="c"
       overflow="visible">
      <path
         d="m 13.734,-11.141 c -0.4375,-0.19531 -0.87109,-0.34375 -1.2969,-0.4375 -0.41797,-0.10156 -0.83984,-0.15625 -1.2656,-0.15625 -1.2617,0 -2.2305,0.40625 -2.9062,1.2188 -0.67969,0.80469 -1.0156,1.9531 -1.0156,3.4531 v 7.0625 H 2.3591 v -15.312 h 4.8906 v 2.5156 c 0.625,-1 1.3438,-1.7266 2.1562,-2.1875 0.82031,-0.46875 1.8008,-0.70312 2.9375,-0.70312 0.16406,0 0.34375,0.01172 0.53125,0.03125 0.19531,0.01172 0.47656,0.03906 0.84375,0.07813 z"
         id="path13520" />
    </symbol>
    <symbol
       id="b"
       overflow="visible">
      <path
         d="m 17.641,-7.7031 v 1.4062 H 6.188 c 0.125,1.1484 0.53906,2.0078 1.25,2.5781 0.70703,0.57422 1.7031,0.85938 2.9844,0.85938 1.0312,0 2.082,-0.14844 3.1562,-0.45312 1.082,-0.3125 2.1914,-0.77344 3.3281,-1.3906 v 3.7656 c -1.1562,0.4375 -2.3125,0.76562 -3.4688,0.98438 -1.1562,0.22656 -2.3125,0.34375 -3.4688,0.34375 -2.7734,0 -4.9297,-0.70312 -6.4688,-2.1094 -1.5312,-1.4062 -2.2969,-3.3789 -2.2969,-5.9219 0,-2.5 0.75391,-4.4609 2.2656,-5.8906 1.5078,-1.4375 3.582,-2.1562 6.2188,-2.1562 2.4062,0 4.332,0.73047 5.7812,2.1875 1.4453,1.4492 2.1719,3.3828 2.1719,5.7969 z m -5.0312,-1.625 c 0,-0.92578 -0.27344,-1.6719 -0.8125,-2.2344 -0.54297,-0.57031 -1.25,-0.85938 -2.125,-0.85938 -0.94922,0 -1.7188,0.26562 -2.3125,0.79688 -0.5937,0.53126 -0.96484,1.2969 -1.1094,2.2969 z"
         id="path13523" />
    </symbol>
    <symbol
       id="e"
       overflow="visible">
      <path
         d="m 9.2188,-6.8906 c -1.0234,0 -1.793,0.17188 -2.3125,0.51562 -0.51172,0.34375 -0.76562,0.85547 -0.76562,1.5312 0,0.625 0.20703,1.1172 0.625,1.4688 0.41406,0.34375 0.98828,0.51562 1.7188,0.51562 0.92578,0 1.7031,-0.32812 2.3281,-0.98438 0.63281,-0.66406 0.95312,-1.4922 0.95312,-2.4844 v -0.5625 z m 7.4688,-1.8438 V 0 h -4.9219 v -2.2656 c -0.65625,0.92969 -1.3984,1.6055 -2.2188,2.0312 -0.82422,0.41406 -1.8242,0.625 -3,0.625 -1.5859,0 -2.8711,-0.45703 -3.8594,-1.375 -0.99219,-0.92578 -1.4844,-2.1289 -1.4844,-3.6094 0,-1.7891 0.61328,-3.1016 1.8438,-3.9375 1.2383,-0.84375 3.1797,-1.2656 5.8281,-1.2656 h 2.8906 v -0.39062 c 0,-0.76953 -0.30859,-1.332 -0.92188,-1.6875 -0.61719,-0.36328 -1.5703,-0.54688 -2.8594,-0.54688 -1.0547,0 -2.0312,0.10547 -2.9375,0.3125 -0.89844,0.21094 -1.7305,0.52344 -2.5,0.9375 v -3.7344 c 1.0391,-0.25 2.0859,-0.44141 3.1406,-0.57812 1.0625,-0.13281 2.125,-0.20312 3.1875,-0.20312 2.7578,0 4.75,0.54688 5.9688,1.6406 1.2266,1.0859 1.8438,2.8555 1.8438,5.3125 z"
         id="path13526" />
    </symbol>
    <symbol
       id="a"
       overflow="visible">
      <path
         d="m 7.7031,-19.656 v 4.3438 H 12.75 v 3.5 H 7.7031 v 6.5 c 0,0.71094 0.14062,1.1875 0.42188,1.4375 0.28126,0.25 0.83594,0.375 1.6719,0.375 h 2.5156 v 3.5 h -4.1875 c -1.9375,0 -3.3125,-0.39844 -4.125,-1.2031 -0.80469,-0.8125 -1.2031,-2.1797 -1.2031,-4.1094 v -6.5 h -2.4219 v -3.5 h 2.4219 v -4.3438 z"
         id="path13529" />
    </symbol>
    <symbol
       id="l"
       overflow="visible">
      <path
         d="m 12.766,-13.078 v -8.2031 h 4.9219 V -10e-5 H 12.766 v -2.2188 c -0.66797,0.90625 -1.4062,1.5703 -2.2188,1.9844 -0.8126,0.4141 -1.7578,0.625 -2.8281,0.625 -1.8867,0 -3.4336,-0.75 -4.6406,-2.25 -1.2109,-1.5 -1.8125,-3.4258 -1.8125,-5.7812 0,-2.3633 0.60156,-4.2969 1.8125,-5.7969 1.207,-1.5 2.7539,-2.25 4.6406,-2.25 1.0625,0 2,0.21484 2.8125,0.64062 0.82031,0.42969 1.5664,1.0859 2.2344,1.9688 z m -3.2188,9.9219 c 1.0391,0 1.8359,-0.37891 2.3906,-1.1406 0.55078,-0.76953 0.82812,-1.8828 0.82812,-3.3438 0,-1.457 -0.27734,-2.5664 -0.82812,-3.3281 -0.55469,-0.76953 -1.3516,-1.1562 -2.3906,-1.1562 -1.043,0 -1.8398,0.38672 -2.3906,1.1562 -0.55469,0.76172 -0.82812,1.8711 -0.82812,3.3281 0,1.4609 0.27344,2.5742 0.82812,3.3438 0.55078,0.76172 1.3477,1.1406 2.3906,1.1406 z"
         id="path13532" />
    </symbol>
    <symbol
       id="k"
       overflow="visible">
      <path
         d="m 10.5,-3.1562 c 1.0508,0 1.8516,-0.37891 2.4062,-1.1406 0.55078,-0.76953 0.82812,-1.8828 0.82812,-3.3438 0,-1.457 -0.27734,-2.5664 -0.82812,-3.3281 -0.55469,-0.76953 -1.3555,-1.1562 -2.4062,-1.1562 -1.0547,0 -1.8594,0.38672 -2.4219,1.1562 -0.55469,0.77344 -0.82812,1.8828 -0.82812,3.3281 0,1.4492 0.27344,2.5586 0.82812,3.3281 0.5625,0.77344 1.3672,1.1562 2.4219,1.1562 z m -3.25,-9.9219 c 0.67578,-0.88281 1.4219,-1.5391 2.2344,-1.9688 0.82031,-0.42578 1.7656,-0.64062 2.8281,-0.64062 1.8945,0 3.4453,0.75 4.6562,2.25 1.207,1.5 1.8125,3.4336 1.8125,5.7969 0,2.3555 -0.60547,4.2812 -1.8125,5.7812 -1.2109,1.5 -2.7617,2.25 -4.6562,2.25 -1.0625,0 -2.0078,-0.21094 -2.8281,-0.625 C 8.6719,-0.6602 7.9258,-1.32032 7.25,-2.21882 V -2e-5 H 2.3594 v -21.281 H 7.25 Z"
         id="path13535" />
    </symbol>
    <symbol
       id="j"
       overflow="visible">
      <path
         d="m 0.34375,-15.312 h 4.8906 l 4.125,10.391 3.5,-10.391 h 4.8906 l -6.4375,16.766 c -0.64844,1.6953 -1.4023,2.8828 -2.2656,3.5625 -0.86719,0.6875 -2,1.0312 -3.4062,1.0312 H 2.79685 V 2.8289 h 1.5312 c 0.83203,0 1.4375,-0.13672 1.8125,-0.40625 C 6.52336,2.16093 6.82024,1.69218 7.03117,1.01645 L 7.17179,0.59457 Z"
         id="path13538" />
    </symbol>
    <symbol
       id="i"
       overflow="visible">
      <path
         d="m 2.5781,-20.406 h 5.25 V 0 h -5.25 z"
         id="path13541" />
    </symbol>
    <symbol
       id="h"
       overflow="visible">
      <path
         d="m 12.422,-21.281 v 3.2188 H 9.7189 c -0.6875,0 -1.1719,0.125 -1.4531,0.375 -0.27344,0.25 -0.40625,0.6875 -0.40625,1.3125 v 1.0625 h 4.1875 v 3.5 H 7.85955 V -2e-4 h -4.8906 v -11.812 h -2.4375 v -3.5 h 2.4375 v -1.0625 c 0,-1.6641 0.46094,-2.8984 1.3906,-3.7031 0.92578,-0.80078 2.3672,-1.2031 4.3281,-1.2031 z"
         id="path13544" />
    </symbol>
    <symbol
       id="t"
       overflow="visible">
      <path
         d="M 2.3594,-21.281 H 7.25 v 11.594 l 5.625,-5.625 h 5.6875 L 11.0937,-8.2808 19.1562,4e-4 H 13.2187 L 7.2499,-6.3902 V 4e-4 H 2.3593 Z"
         id="path13547" />
    </symbol>
    <symbol
       id="g"
       overflow="visible">
      <path
         d="M 2.3594,-15.312 H 7.25 V 0 H 2.3594 Z m 0,-5.9688 H 7.25 v 4 H 2.3594 Z"
         id="path13550" />
    </symbol>
    <symbol
       id="f"
       overflow="visible">
      <path
         d="M 17.75,-9.3281 V 0 h -4.9219 v -7.1406 c 0,-1.3203 -0.03125,-2.2344 -0.09375,-2.7344 -0.0625,-0.5 -0.16797,-0.86719 -0.3125,-1.1094 -0.1875,-0.3125 -0.44922,-0.55469 -0.78125,-0.73438 -0.32422,-0.17578 -0.69531,-0.26562 -1.1094,-0.26562 -1.0234,0 -1.8242,0.39844 -2.4062,1.1875 -0.58594,0.78125 -0.875,1.8711 -0.875,3.2656 V -1e-4 H 2.3594 v -15.312 H 7.25 v 2.2344 c 0.73828,-0.88281 1.5195,-1.5391 2.3438,-1.9688 0.83203,-0.42578 1.75,-0.64062 2.75,-0.64062 1.7695,0 3.1133,0.54688 4.0312,1.6406 0.91406,1.0859 1.375,2.6562 1.375,4.7188 z"
         id="path13553" />
    </symbol>
    <symbol
       id="d"
       overflow="visible">
      <path
         d="m 9.6406,-12.188 c -1.0859,0 -1.9141,0.39062 -2.4844,1.1719 -0.57422,0.78125 -0.85938,1.9062 -0.85938,3.375 0,1.4688 0.28516,2.5938 0.85938,3.375 0.57031,0.77344 1.3984,1.1562 2.4844,1.1562 1.0625,0 1.875,-0.38281 2.4375,-1.1562 0.57031,-0.78125 0.85938,-1.9062 0.85938,-3.375 0,-1.4688 -0.28906,-2.5938 -0.85938,-3.375 -0.5625,-0.78125 -1.375,-1.1719 -2.4375,-1.1719 z m 0,-3.5 c 2.6328,0 4.6914,0.71484 6.1719,2.1406 1.4766,1.418 2.2188,3.3867 2.2188,5.9062 0,2.5117 -0.74219,4.4805 -2.2188,5.9062 C 14.332,-0.317 12.2734,0.39 9.6406,0.39 6.9922,0.39 4.9258,-0.31703 3.4375,-1.735 1.9453,-3.1608 1.2031,-5.1295 1.2031,-7.6412 c 0,-2.5195 0.74219,-4.4883 2.2344,-5.9062 1.4883,-1.4258 3.5547,-2.1406 6.2031,-2.1406 z"
         id="path13556" />
    </symbol>
    <symbol
       id="s"
       overflow="visible">
      <path
         d="m 16.547,-12.766 c 0.61328,-0.94531 1.3477,-1.6719 2.2031,-2.1719 0.85156,-0.5 1.7891,-0.75 2.8125,-0.75 1.7578,0 3.0977,0.54688 4.0156,1.6406 0.92578,1.0859 1.3906,2.6562 1.3906,4.7188 V -4e-4 h -4.9219 v -7.9844 -0.35938 c 0.0078,-0.13281 0.01563,-0.32031 0.01563,-0.5625 0,-1.082 -0.16406,-1.8633 -0.48438,-2.3438 -0.3125,-0.48828 -0.82422,-0.73438 -1.5312,-0.73438 -0.92969,0 -1.6484,0.38672 -2.1562,1.1562 -0.51172,0.76172 -0.77344,1.8672 -0.78125,3.3125 v 7.5156 h -4.9219 v -7.9844 c 0,-1.6953 -0.14844,-2.7852 -0.4375,-3.2656 -0.29297,-0.48828 -0.8125,-0.73438 -1.5625,-0.73438 -0.9375,0 -1.6641,0.38672 -2.1719,1.1562 -0.51172,0.76172 -0.76562,1.8594 -0.76562,3.2969 v 7.5312 h -4.9219 v -15.312 h 4.9219 v 2.2344 c 0.60156,-0.86328 1.2891,-1.5156 2.0625,-1.9531 0.78125,-0.4375 1.6406,-0.65625 2.5781,-0.65625 1.0625,0 2,0.25781 2.8125,0.76562 0.8125,0.51172 1.4258,1.2305 1.8438,2.1562 z"
         id="path13559" />
    </symbol>
    <symbol
       id="r"
       overflow="visible">
      <path
         d="M 17.75,-9.3281 V 0 h -4.9219 v -7.1094 c 0,-1.3438 -0.03125,-2.2656 -0.09375,-2.7656 -0.0625,-0.5 -0.16797,-0.86719 -0.3125,-1.1094 -0.1875,-0.3125 -0.44922,-0.55469 -0.78125,-0.73438 -0.32422,-0.17578 -0.69531,-0.26562 -1.1094,-0.26562 -1.0234,0 -1.8242,0.39844 -2.4062,1.1875 -0.58594,0.78125 -0.875,1.8711 -0.875,3.2656 V -1e-4 H 2.3594 v -21.281 H 7.25 v 8.2031 c 0.73828,-0.88281 1.5195,-1.5391 2.3438,-1.9688 0.83203,-0.42578 1.75,-0.64062 2.75,-0.64062 1.7695,0 3.1133,0.54688 4.0312,1.6406 0.91406,1.0859 1.375,2.6562 1.375,4.7188 z"
         id="path13562" />
    </symbol>
    <symbol
       id="q"
       overflow="visible">
      <path
         d="m 2.5781,-20.406 h 5.875 l 7.4219,14 v -14 h 4.9844 V 0 h -5.875 L 7.5625,-14 V 0 H 2.5781 Z"
         id="path13565" />
    </symbol>
    <symbol
       id="p"
       overflow="visible">
      <path
         d="m 2.1875,-5.9688 v -9.3438 h 4.9219 v 1.5312 c 0,0.83594 -0.00781,1.875 -0.015625,3.125 -0.011719,1.25 -0.015625,2.0859 -0.015625,2.5 0,1.2422 0.03125,2.1328 0.09375,2.6719 0.070313,0.54297 0.17969,0.93359 0.32812,1.1719 0.20703,0.32422 0.47266,0.57422 0.79688,0.75 0.32031,0.16797 0.69141,0.25 1.1094,0.25 1.0195,0 1.8203,-0.39062 2.4062,-1.1719 0.58203,-0.78125 0.875,-1.8672 0.875,-3.2656 v -7.5625 h 4.8906 V -6e-4 H 12.6875 V -2.2194 C 11.94531,-1.32096 11.1641,-0.6608 10.3437,-0.235 9.51948,0.17906 8.6093,0.39 7.6093,0.39 5.8476,0.39 4.5038,-0.14906 3.5781,-1.235 2.64841,-2.317 2.1875,-3.8952 2.1875,-5.9694 Z"
         id="path13568" />
    </symbol>
    <symbol
       id="o"
       overflow="visible">
      <path
         d="m 2.5781,-20.406 h 8.7344 c 2.5938,0 4.582,0.57812 5.9688,1.7344 1.3945,1.1484 2.0938,2.7891 2.0938,4.9219 0,2.1367 -0.69922,3.7812 -2.0938,4.9375 -1.3867,1.1562 -3.375,1.7344 -5.9688,1.7344 H 7.8281 V 3e-4 h -5.25 z m 5.25,3.8125 v 5.7031 H 10.75 c 1.0195,0 1.8047,-0.25 2.3594,-0.75 0.5625,-0.5 0.84375,-1.2031 0.84375,-2.1094 0,-0.91406 -0.28125,-1.6172 -0.84375,-2.1094 -0.55469,-0.48828 -1.3398,-0.73438 -2.3594,-0.73438 z"
         id="path13571" />
    </symbol>
    <symbol
       id="n"
       overflow="visible">
      <path
         d="M 2.3594,-15.312 H 7.25 v 15.031 c 0,2.0508 -0.49609,3.6172 -1.4844,4.7031 -0.98047,1.082 -2.4062,1.625 -4.2812,1.625 H -0.9375 V 2.8283 h 0.85938 c 0.92578,0 1.5625,-0.21094 1.9062,-0.625 0.35156,-0.41797 0.53125,-1.2461 0.53125,-2.4844 z m 0,-5.9688 H 7.25 v 4 H 2.3594 Z"
         id="path13574" />
    </symbol>
    <symbol
       id="m"
       overflow="visible">
      <path
         d="m 14.719,-14.828 v 3.9844 c -0.65625,-0.45703 -1.3242,-0.79688 -2,-1.0156 -0.66797,-0.21875 -1.3594,-0.32812 -2.0781,-0.32812 -1.3672,0 -2.4336,0.40234 -3.2031,1.2031 -0.76172,0.79297 -1.1406,1.9062 -1.1406,3.3438 0,1.4297 0.37891,2.543 1.1406,3.3438 0.76953,0.79297 1.8359,1.1875 3.2031,1.1875 0.75781,0 1.4844,-0.10938 2.1719,-0.32812 0.6875,-0.22656 1.3203,-0.56641 1.9062,-1.0156 v 4 c -0.76172,0.28125 -1.5391,0.48828 -2.3281,0.625 -0.78125,0.14453 -1.5742,0.21875 -2.375,0.21875 -2.7617,0 -4.9219,-0.70703 -6.4844,-2.125 -1.5547,-1.4141 -2.3281,-3.3828 -2.3281,-5.9062 0,-2.5312 0.77344,-4.5039 2.3281,-5.9219 1.5625,-1.4141 3.7227,-2.125 6.4844,-2.125 0.80078,0 1.5938,0.07422 2.375,0.21875 0.78125,0.13672 1.5547,0.35156 2.3281,0.64062 z"
         id="path13577" />
    </symbol>
  </defs>
  <g
     id="g13662"
     transform="translate(-129.19072,-34.3428)">
    <path
       d="m 549.49,185.74 c 1.0508,1.0508 2.4766,1.6406 3.9609,1.6406 1.4843,0 2.9102,-0.58984 3.957,-1.6406 11.566,-11.562 16.082,-28.418 11.852,-44.215 -4.2344,-15.797 -16.57,-28.137 -32.367,-32.367 -15.797,-4.2344 -32.652,0.28125 -44.215,11.844 -1.0508,1.0508 -1.6406,2.4766 -1.6406,3.9609 0,1.4844 0.58984,2.9102 1.6406,3.9609 l 12.266,12.266 -17.855,17.852 h -0.004 c -29.645,-25.965 -66.074,-42.934 -105.02,-48.918 v -22.883 h 36.734 c 1.4844,0.0039 2.9102,-0.58594 3.957,-1.6367 1.0508,-1.0508 1.6406,-2.4766 1.6406,-3.9609 v -28.738 c -0.004,-4.9219 -1.9609,-9.6406 -5.4414,-13.121 -3.4805,-3.4766 -8.1992,-5.4375 -13.117,-5.4414 h -111.66 c -4.918,0.0039 -9.6367,1.9648 -13.117,5.4414 -3.4805,3.4805 -5.4375,8.1992 -5.4414,13.121 v 28.738 c 0,1.4844 0.58984,2.9102 1.6406,3.9609 1.0469,1.0508 2.4727,1.6406 3.957,1.6367 h 36.727 v 22.879 l 0.004,0.004 c -38.949,5.9844 -75.383,22.953 -105.03,48.914 l -17.852,-17.848 12.266,-12.27 v 0.004 c 1.0508,-1.0508 1.6406,-2.4766 1.6406,-3.9609 0,-1.4844 -0.58984,-2.9102 -1.6406,-3.9609 -11.562,-11.562 -28.418,-16.078 -44.215,-11.844 -15.797,4.2305 -28.133,16.57 -32.367,32.367 -4.2305,15.797 0.28516,32.652 11.852,44.215 1.0469,1.0508 2.4727,1.6406 3.957,1.6406 1.4843,0 2.9102,-0.58984 3.9609,-1.6406 l 12.27,-12.27 19.09,19.086 c -26.688,35.844 -41.035,79.375 -40.891,124.06 0,55.434 22.02,108.6 61.219,147.8 39.199,39.199 92.363,61.219 147.8,61.219 55.438,0 108.6,-22.02 147.8,-61.219 39.199,-39.199 61.219,-92.363 61.219,-147.8 0.14062,-44.695 -14.184,-88.238 -40.836,-124.12 l 19.035,-19.035 z m 0,-56.816 c 5.7891,5.8008 9.332,13.469 9.9961,21.641 0.66797,8.168 -1.5859,16.309 -6.3594,22.977 l -11.863,-11.867 c -0.0312,-0.0312 -0.0391,-0.0703 -0.0664,-0.10156 l -24.359,-24.363 c -0.0312,-0.0312 -0.0703,-0.0391 -0.10156,-0.0664 l -11.859,-11.859 c 6.6641,-4.7695 14.805,-7.0234 22.973,-6.3555 8.1719,0.66406 15.84,4.207 21.641,9.9961 z M 286.81,52.904 c 0.004,-4.0625 3.2969,-7.3594 7.3594,-7.3633 h 111.66 c 4.0625,0.0039 7.3555,3.3008 7.3594,7.3633 v 23.137 h -126.38 z m 84.051,34.34 v 21.336 c -1.6289,-0.16016 -3.2812,-0.23438 -4.9219,-0.35547 -1.1797,-0.0859 -2.3477,-0.1875 -3.5352,-0.25781 -8.2695,-0.47266 -16.562,-0.47266 -24.836,0 -1.2109,0.0703 -2.4062,0.17188 -3.6133,0.26172 -1.6055,0.12109 -3.2266,0.19531 -4.8203,0.35156 l 0.004,-21.34 z m -223.98,86.297 c -6.418,-8.957 -8.1836,-20.434 -4.7578,-30.902 3.4258,-10.469 11.637,-18.68 22.105,-22.109 10.473,-3.4258 21.945,-1.6602 30.902,4.7539 l -11.848,11.848 c -0.0352,0.0352 -0.082,0.043 -0.11719,0.0781 l -24.359,24.359 c -0.0352,0.0352 -0.043,0.082 -0.0742,0.11719 z m 40.266,-24.43 17.41,17.406 c -0.30078,0.28906 -0.57422,0.60156 -0.87109,0.89062 -2.3125,2.2539 -4.5703,4.5625 -6.7734,6.9219 -0.1875,0.19922 -0.38281,0.39062 -0.57031,0.58984 -2.3789,2.582 -4.6719,5.2422 -6.9023,7.9414 -0.21484,0.25781 -0.44531,0.49609 -0.65625,0.75391 l -18.07,-18.066 z m 162.89,365.35 c -52.453,-0.0586 -102.74,-20.922 -139.84,-58.012 -37.09,-37.09 -57.953,-87.379 -58.012,-139.83 -0.14844,-43.914 14.473,-86.598 41.52,-121.2 3.3906,-4.4219 6.9844,-8.6992 10.781,-12.824 3.7852,-4.1133 7.75,-8.0469 11.887,-11.805 l 0.0234,-0.0195 h -0.004 c 29.875,-27.551 67.562,-45.152 107.87,-50.375 16.621,-2.0938 33.438,-2.1367 50.066,-0.13281 0.46875,0.0586 0.94922,0.0742 1.4141,0.13672 v -0.004 c 40.316,5.2227 78.016,22.832 107.89,50.395 5.9922,5.4648 11.633,11.301 16.895,17.473 0.13672,0.16016 0.27734,0.30469 0.41406,0.46484 0.41016,0.48047 0.80078,0.99219 1.207,1.4766 1.4297,1.7109 2.8594,3.4297 4.2539,5.207 l 0.004,0.004 h -0.004 c 26.984,34.625 41.566,77.301 41.418,121.2 -0.0508,52.445 -20.906,102.73 -57.984,139.82 -37.082,37.09 -87.359,57.957 -139.8,58.023 z m 161.22,-330.87 c -0.24219,-0.28906 -0.49609,-0.55469 -0.73828,-0.84375 -4.5156,-5.3945 -9.2969,-10.559 -14.324,-15.473 -0.25,-0.24609 -0.49219,-0.51562 -0.74609,-0.76172 l 17.418,-17.41 16.438,16.441 z"
       id="path13582"
       style="fill:#ffffff" />
    <path
       d="m 453.27,215.14 -83.719,76.156 c -6.3438,-4.9102 -14.297,-7.2617 -22.289,-6.5898 -7.9961,0.67187 -15.445,4.3203 -20.875,10.223 -5.4336,5.9023 -8.4531,13.629 -8.4648,21.648 -0.0117,8.0234 2.9922,15.754 8.4102,21.672 5.418,5.9141 12.855,9.582 20.848,10.273 7.9922,0.69141 15.953,-1.6406 22.309,-6.5352 l 41.77,38.227 c 2.2812,2.0859 5.8242,1.9297 7.9102,-0.35547 2.0859,-2.2812 1.9297,-5.8203 -0.35156,-7.9102 l -41.758,-38.211 c 3.25,-5.1055 4.9844,-11.031 4.9961,-17.082 0.0117,-6.0547 -1.6992,-11.984 -4.9336,-17.102 l 83.684,-76.129 c 2.2617,-2.0859 2.4141,-5.6094 0.34375,-7.8867 -2.0703,-2.2734 -5.5898,-2.4531 -7.8789,-0.39844 z M 329.13,316.61 c 0.004,-5.6523 2.3008,-11.062 6.3672,-14.988 4.0625,-3.9219 9.5508,-6.0312 15.199,-5.832 5.6484,0.19531 10.973,2.6758 14.758,6.875 3.4883,3.832 5.4141,8.832 5.3984,14.016 -0.0195,5.1836 -1.9805,10.172 -5.4961,13.977 -3.8008,4.1602 -9.125,6.6016 -14.758,6.7734 -5.6328,0.16797 -11.094,-1.9492 -15.137,-5.8711 -4.0469,-3.9219 -6.3281,-9.3164 -6.332,-14.949 z"
       id="path13584"
       style="fill:#ffffff" />
    <path
       d="m 350.03,147.27 c -33.492,0 -66.234,9.9297 -94.082,28.539 -27.852,18.605 -49.555,45.055 -62.375,75.996 -12.816,30.945 -16.172,64.996 -9.6367,97.844 6.5312,32.852 22.66,63.023 46.344,86.707 23.684,23.684 53.855,39.812 86.707,46.348 32.848,6.5352 66.898,3.1836 97.844,-9.6328 30.941,-12.816 57.391,-34.523 76,-62.371 18.605,-27.848 28.539,-60.59 28.539,-94.082 -0.0586,-44.895 -17.918,-87.934 -49.664,-119.68 -31.742,-31.746 -74.781,-49.605 -119.68,-49.668 z m 0,327.49 c -41.941,0.004 -82.168,-16.66 -111.83,-46.316 -29.656,-29.656 -46.32,-69.883 -46.32,-111.82 0,-41.941 16.66,-82.168 46.32,-111.82 29.656,-29.66 69.879,-46.32 111.82,-46.32 41.941,-0.004 82.168,16.66 111.82,46.316 29.66,29.66 46.32,69.883 46.32,111.83 -0.0547,41.922 -16.734,82.113 -46.379,111.76 -29.645,29.645 -69.836,46.324 -111.76,46.379 z"
       id="path13586"
       style="fill:#ffffff" />
  </g>
</svg>
